# xmcd
#
# Track frame offsets: 
#        150
#        20692
#        44463
#        64974
#        87960
#        109368
#        129123
#        152184
#        171342
#        186754
#        206612
#        226479
#
# Disc length: 3302 seconds
#
# Revision: 0
# Processed by: cddbd v1.5.2PL0 Copyright (c) Steve Scherf et al.
# Submitted via: ExactAudioCopyFreeDBPlugin 1.0
#
DISCID=a70ce40c
DTITLE=赵蓉 - DTSES秀色
DYEAR=2007
DGENRE=Acid
TTITLE0=蓝莲花
TTITLE1=千年泪
TTITLE2=想起
TTITLE3=相逢是首歌
TTITLE4=晚秋
TTITLE5=泪桥
TTITLE6=红颜
TTITLE7=彩云追月
TTITLE8=踏浪
TTITLE9=你的样子
TTITLE10=断点
TTITLE11=赞歌
EXTD=
EXTT0=
EXTT1=
EXTT2=
EXTT3=
EXTT4=
EXTT5=
EXTT6=
EXTT7=
EXTT8=
EXTT9=
EXTT10=
EXTT11=
PLAYORDER=
